<?xml version="1.0" encoding="UTF-8" standalone="no"?>
<!-- Created with Inkscape (http://www.inkscape.org/) -->

<svg
   xmlns:dc="http://purl.org/dc/elements/1.1/"
   xmlns:cc="http://creativecommons.org/ns#"
   xmlns:rdf="http://www.w3.org/1999/02/22-rdf-syntax-ns#"
   xmlns:svg="http://www.w3.org/2000/svg"
   xmlns="http://www.w3.org/2000/svg"
   xmlns:sodipodi="http://sodipodi.sourceforge.net/DTD/sodipodi-0.dtd"
   xmlns:inkscape="http://www.inkscape.org/namespaces/inkscape"
   width="1275.5906"
   height="1275.5906"
   id="svg3000"
   version="1.1"
   inkscape:version="0.48.5 r10040"
   sodipodi:docname="ic_add_monster.svg"
   inkscape:export-filename="C:\Users\Massimo\AndroidStudioProjects\CollaborativeGroupOrder\app\src\main\res\mipmap-xxxhdpi\ic_add_monster.png"
   inkscape:export-xdpi="6.7733331"
   inkscape:export-ydpi="6.7733331">
  <defs
     id="defs3002" />
  <sodipodi:namedview
     id="base"
     pagecolor="#ffffff"
     bordercolor="#666666"
     borderopacity="1.0"
     inkscape:pageopacity="0.0"
     inkscape:pageshadow="2"
     inkscape:zoom="0.60364197"
     inkscape:cx="844.43922"
     inkscape:cy="588.78697"
     inkscape:document-units="cm"
     inkscape:current-layer="layer1"
     showgrid="true"
     inkscape:window-width="1680"
     inkscape:window-height="987"
     inkscape:window-x="-8"
     inkscape:window-y="-8"
     inkscape:window-maximized="1"
     units="cm"
     inkscape:snap-global="true"
     inkscape:snap-grids="false"
     inkscape:snap-bbox="true"
     inkscape:object-nodes="true">
    <inkscape:grid
       type="xygrid"
       id="grid3008"
       empspacing="4"
       visible="true"
       enabled="true"
       snapvisiblegridlinesonly="true"
       units="cm"
       dotted="true"
       spacingx="1cm"
       spacingy="1cm" />
  </sodipodi:namedview>
  <metadata
     id="metadata3005">
    <rdf:RDF>
      <cc:Work
         rdf:about="">
        <dc:format>image/svg+xml</dc:format>
        <dc:type
           rdf:resource="http://purl.org/dc/dcmitype/StillImage" />
        <dc:title></dc:title>
      </cc:Work>
    </rdf:RDF>
  </metadata>
  <g
     inkscape:label="Layer 1"
     inkscape:groupmode="layer"
     id="layer1"
     transform="translate(0,223.25578)">
    <path
       style="fill:#000000;stroke:#000000"
       d="M 213.1875 52.65625 C 205.91912 179.77056 154.18585 281.7385 229.28125 455.40625 C 88.573054 666.43805 49.094198 1003.6956 212.59375 1169.2812 C 313.42715 1271.4017 495.37027 1177.3116 658.125 1184.125 C 820.87973 1190.9383 964.44286 1298.659 1072.9375 1204.7188 C 1277.4673 1027.6257 1169.3152 627.55829 987.46875 422.21875 C 1020.2185 339.69316 1031.3133 250.79888 1032.9375 159.125 L 948.71875 94.90625 C 934.34882 180.02733 891.65982 250.98231 842.96875 312.4375 C 692.02176 241.22503 487.0037 237.86641 355.71875 323.5 C 273.08048 241.34965 249.70941 160.55882 213.1875 52.65625 z M 442.78125 504.375 C 521.95041 504.375 586.125 540.23472 586.125 584.46875 C 586.125 628.70278 521.95041 664.5625 442.78125 664.5625 C 363.61209 664.5625 299.4375 628.70278 299.4375 584.46875 C 299.4375 540.23472 363.61209 504.375 442.78125 504.375 z M 852.78125 524.21875 C 928.74459 524.21875 990.3125 561.70246 990.3125 607.90625 C 990.3125 654.11004 928.74459 691.5625 852.78125 691.5625 C 776.81791 691.5625 715.25 654.11004 715.25 607.90625 C 715.25 561.70246 776.81791 524.21875 852.78125 524.21875 z M 358.4375 778.90625 L 470.1875 993.4375 C 577.65266 980.09894 683.31151 975.79897 783.40625 999.3125 L 897.28125 822.25 L 906.65625 1102.2188 L 878.03125 1085.7188 C 699.54436 1056.4475 519.70923 1036.621 335.03125 1050.6875 L 358.4375 778.90625 z "
       transform="translate(0,-223.25578)"
       id="path3009" />
  </g>
</svg>
