<?xml version="1.0" encoding="UTF-8" standalone="no"?>
<!-- Created with Inkscape (http://www.inkscape.org/) -->

<svg
   xmlns:dc="http://purl.org/dc/elements/1.1/"
   xmlns:cc="http://creativecommons.org/ns#"
   xmlns:rdf="http://www.w3.org/1999/02/22-rdf-syntax-ns#"
   xmlns:svg="http://www.w3.org/2000/svg"
   xmlns="http://www.w3.org/2000/svg"
   xmlns:sodipodi="http://sodipodi.sourceforge.net/DTD/sodipodi-0.dtd"
   xmlns:inkscape="http://www.inkscape.org/namespaces/inkscape"
   width="1275.5906"
   height="1275.5906"
   id="svg3000"
   version="1.1"
   inkscape:version="0.48.5 r10040"
   sodipodi:docname="ic_readied_action.svg"
   inkscape:export-filename="C:\Users\Massimo\AndroidStudioProjects\CollaborativeGroupOrder\app\src\main\res\mipmap-xxxhdpi\ic_readied_action_white_24dp.png"
   inkscape:export-xdpi="6.7733331"
   inkscape:export-ydpi="6.7733331">
  <defs
     id="defs3002" />
  <sodipodi:namedview
     id="base"
     pagecolor="#ffffff"
     bordercolor="#666666"
     borderopacity="1.0"
     inkscape:pageopacity="0.0"
     inkscape:pageshadow="2"
     inkscape:zoom="0.42683933"
     inkscape:cx="1039.507"
     inkscape:cy="635.52315"
     inkscape:document-units="cm"
     inkscape:current-layer="layer1"
     showgrid="true"
     inkscape:window-width="1680"
     inkscape:window-height="987"
     inkscape:window-x="-8"
     inkscape:window-y="-8"
     inkscape:window-maximized="1"
     units="cm"
     inkscape:snap-global="true"
     inkscape:snap-nodes="true"
     inkscape:snap-bbox="true"
     inkscape:snap-grids="true"
     inkscape:object-nodes="true">
    <inkscape:grid
       type="xygrid"
       id="grid3008"
       empspacing="4"
       visible="true"
       enabled="true"
       snapvisiblegridlinesonly="true"
       units="cm"
       dotted="true"
       spacingx="0.5cm"
       spacingy="0.5cm" />
  </sodipodi:namedview>
  <metadata
     id="metadata3005">
    <rdf:RDF>
      <cc:Work
         rdf:about="">
        <dc:format>image/svg+xml</dc:format>
        <dc:type
           rdf:resource="http://purl.org/dc/dcmitype/StillImage" />
        <dc:title></dc:title>
      </cc:Work>
    </rdf:RDF>
  </metadata>
  <g
     inkscape:groupmode="layer"
     id="layer2"
     inkscape:label="Polygon"
     style="display:none">
    <path
       transform="matrix(1.0157448,0,0,1.0680173,635.41558,639.11586)"
       d="M 595.36795,-1.236468 434.36713,139.13675 482.11022,347.33497 269.34852,366.26538 185.59765,562.76396 2.3427997,453.0208 -180.91205,562.76396 l -83.75087,-196.49858 -212.7617,-18.93041 47.74309,-208.19823 -161.00081,-140.373208 161.00081,-140.373212 -47.74309,-208.19822 212.7617,-18.93041 83.75087,-196.49859 183.2548539,109.74317 183.2548461,-109.74317 83.75087,196.49859 212.7617,18.93041 -47.74309,208.19822 z"
       inkscape:randomized="0"
       inkscape:rounded="0"
       inkscape:flatsided="false"
       sodipodi:arg2="0.31415927"
       sodipodi:arg1="0"
       sodipodi:r2="454.25726"
       sodipodi:r1="593.02515"
       sodipodi:cy="-1.236468"
       sodipodi:cx="2.3428018"
       sodipodi:sides="10"
       id="path2988"
       style="color:#000000;fill:#000000;fill-opacity:1;fill-rule:nonzero;stroke:none;stroke-width:70.86614227;marker:none;visibility:visible;display:inline;overflow:visible;enable-background:accumulate"
       sodipodi:type="star" />
  </g>
  <g
     inkscape:label="Layer 1"
     inkscape:groupmode="layer"
     id="layer1"
     transform="translate(0,223.25578)"><path
   style="opacity:1;color:#000000;fill:#ffffff;fill-opacity:1;fill-rule:nonzero;stroke:none;stroke-width:70.86614227000001200;marker:none;visibility:visible;display:inline;overflow:visible;enable-background:accumulate"
   d="M 451.65625 35.4375 L 366.59375 245.3125 L 150.46875 265.5 L 198.96875 487.875 L 35.4375 637.78125 L 198.96875 787.71875 L 150.46875 1010.0625 L 366.59375 1030.2812 L 451.65625 1240.1562 L 637.78125 1122.9375 L 823.9375 1240.1562 L 909 1030.2812 L 1125.125 1010.0625 L 1076.625 787.71875 L 1240.1562 637.78125 L 1076.625 487.875 L 1125.125 265.5 L 909 245.3125 L 823.9375 35.4375 L 637.78125 152.65625 L 451.65625 35.4375 z M 425.1875 354.34375 L 549.21875 354.34375 L 549.21875 921.25 L 425.1875 921.25 L 425.1875 354.34375 z M 726.375 354.34375 L 850.40625 354.34375 L 850.40625 921.25 L 726.375 921.25 L 726.375 354.34375 z "
   transform="translate(0,-223.25578)"
   id="path3040" />


&quot;
       id=&quot;path3000&quot;
       inkscape:connector-curvature=&quot;0&quot;
       transform=&quot;translate(0,-223.25578)&quot; /&gt;
  </g>
</svg>
